<svg width="60" height="58" viewBox="0 0 60 58" fill="none" xmlns="http://www.w3.org/2000/svg">
<g clip-path="url(#clip0_5_496)">
<path d="M26 35L30 31.95L34 35L32.5 30.05L36.5 27.2H31.6L30 22L28.4 27.2H23.5L27.5 30.05L26 35ZM30 39C28.6167 39 27.3167 38.7375 26.1 38.2125C24.8833 37.6875 23.825 36.975 22.925 36.075C22.025 35.175 21.3125 34.1167 20.7875 32.9C20.2625 31.6833 20 30.3833 20 29C20 27.6167 20.2625 26.3167 20.7875 25.1C21.3125 23.8833 22.025 22.825 22.925 21.925C23.825 21.025 24.8833 20.3125 26.1 19.7875C27.3167 19.2625 28.6167 19 30 19C31.3833 19 32.6833 19.2625 33.9 19.7875C35.1167 20.3125 36.175 21.025 37.075 21.925C37.975 22.825 38.6875 23.8833 39.2125 25.1C39.7375 26.3167 40 27.6167 40 29C40 30.3833 39.7375 31.6833 39.2125 32.9C38.6875 34.1167 37.975 35.175 37.075 36.075C36.175 36.975 35.1167 37.6875 33.9 38.2125C32.6833 38.7375 31.3833 39 30 39ZM30 37C32.2333 37 34.125 36.225 35.675 34.675C37.225 33.125 38 31.2333 38 29C38 26.7667 37.225 24.875 35.675 23.325C34.125 21.775 32.2333 21 30 21C27.7667 21 25.875 21.775 24.325 23.325C22.775 24.875 22 26.7667 22 29C22 31.2333 22.775 33.125 24.325 34.675C25.875 36.225 27.7667 37 30 37Z" fill="#EFB8C8"/>
</g>
<defs>
<clipPath id="clip0_5_496">
<rect x="2" y="1" width="56" height="56" rx="28" fill="white"/>
</clipPath>
</defs>
</svg>
